<!-- icon666.com - MILLIONS vector ICONS FREE --><svg version="1.1" id="Capa_1" xmlns="http://www.w3.org/2000/svg" xmlns:xlink="http://www.w3.org/1999/xlink" x="0px" y="0px" viewBox="0 0 512 512" style="enable-background:new 0 0 512 512;" xml:space="preserve"><path style="fill:#C0BCC1;" d="M330.251,396.003H181.749c-18.226,0-33-14.775-33-33V33c0-18.226,14.775-33,33-33H330.25 c18.226,0,33,14.775,33,33v330.003C363.251,381.229,348.477,396.003,330.251,396.003z"></path><path style="fill:#AEA8AF;" d="M181.749,321.753V0c-18.226,0-33,14.774-33,33v330.003c0,18.226,14.775,33,33,33H330.25 c18.226,0,33-14.775,33-33h-140.25C200.219,363.003,181.749,344.535,181.749,321.753z"></path><path style="fill:#5D5360;" d="M313.751,198.002H198.249c-9.113,0-16.5-7.387-16.5-16.5V82.501c0-9.113,7.387-16.5,16.5-16.5H313.75 c9.113,0,16.5,7.387,16.5,16.5v99.001C330.251,190.614,322.863,198.002,313.751,198.002z"></path><path style="fill:#D4F582;" d="M189.999,363.499V495.5c0,9.113,7.387,16.5,16.5,16.5H305.5c9.113,0,16.5-7.388,16.5-16.5V363.499 H189.999z"></path><rect x="190.001" y="371.25" style="fill:#B9E57D;" width="132" height="16.5"></rect><circle style="fill:#FFC850;" cx="272.5" cy="462.5" r="16.5"></circle><circle style="fill:#E1A546;" cx="272.5" cy="429.5" r="16.5"></circle><g><path style="fill:#C9C6CA;" d="M223.001,412.999c-4.56,0-8.25-3.694-8.25-8.25v-41.25c0-4.556,3.69-8.25,8.25-8.25 s8.25,3.694,8.25,8.25v41.25C231.251,409.305,227.561,412.999,223.001,412.999z"></path><path style="fill:#C9C6CA;" d="M223.001,487.25c-4.56,0-8.25-3.694-8.25-8.25v-41.25c0-4.556,3.69-8.25,8.25-8.25 s8.25,3.694,8.25,8.25V479C231.251,483.556,227.561,487.25,223.001,487.25z"></path></g><g><path style="fill:#6F6571;" d="M313.751,41.746H198.249c-4.56,0-8.25-3.694-8.25-8.25s3.69-8.25,8.25-8.25H313.75 c4.56,0,8.25,3.694,8.25,8.25S318.311,41.746,313.751,41.746z"></path><path style="fill:#6F6571;" d="M330.251,371.749H181.749c-4.56,0-8.25-3.694-8.25-8.25s3.69-8.25,8.25-8.25H330.25 c4.56,0,8.25,3.694,8.25,8.25S334.811,371.749,330.251,371.749z"></path></g><path style="fill:#B9E57D;" d="M305.5,165.001h-99c-4.556,0-8.25-3.694-8.25-8.25v-66c0-4.556,3.694-8.25,8.25-8.25h99 c4.556,0,8.25,3.694,8.25,8.25v66.001C313.751,161.308,310.057,165.001,305.5,165.001z"></path><g><path style="fill:#4B3F4E;" d="M264.25,198.002h-16.5c-4.556,0-8.25-3.694-8.25-8.25v-8.25c0-4.556,3.694-8.25,8.25-8.25h16.5 c4.556,0,8.25,3.694,8.25,8.25v8.25C272.5,194.308,268.806,198.002,264.25,198.002z"></path><path style="fill:#4B3F4E;" d="M313.751,198.002h-16.5c-4.556,0-8.25-3.694-8.25-8.25v-8.25c0-4.556,3.694-8.25,8.25-8.25h16.5 c4.556,0,8.25,3.694,8.25,8.25v8.25C322.001,194.308,318.307,198.002,313.751,198.002z"></path><path style="fill:#4B3F4E;" d="M214.751,198.002h-16.5c-4.556,0-8.25-3.694-8.25-8.25v-8.25c0-4.556,3.694-8.25,8.25-8.25h16.5 c4.556,0,8.25,3.694,8.25,8.25v8.25C223.001,194.308,219.307,198.002,214.751,198.002z"></path></g><g><path style="fill:#DBD9DC;" d="M264.25,255.752h-16.5c-4.556,0-8.25-3.694-8.25-8.25v-8.25c0-4.556,3.694-8.25,8.25-8.25h16.5 c4.556,0,8.25,3.694,8.25,8.25v8.25C272.5,252.059,268.806,255.752,264.25,255.752z"></path><path style="fill:#DBD9DC;" d="M313.751,255.752h-16.5c-4.556,0-8.25-3.694-8.25-8.25v-8.25c0-4.556,3.694-8.25,8.25-8.25h16.5 c4.556,0,8.25,3.694,8.25,8.25v8.25C322.001,252.059,318.307,255.752,313.751,255.752z"></path><path style="fill:#DBD9DC;" d="M214.751,255.752h-16.5c-4.556,0-8.25-3.694-8.25-8.25v-8.25c0-4.556,3.694-8.25,8.25-8.25h16.5 c4.556,0,8.25,3.694,8.25,8.25v8.25C223.001,252.059,219.307,255.752,214.751,255.752z"></path></g><path style="fill:#FFF082;" d="M264.25,330.003h-16.5c-4.556,0-8.25-3.694-8.25-8.25v-8.25c0-4.556,3.694-8.25,8.25-8.25h16.5 c4.556,0,8.25,3.694,8.25,8.25v8.25C272.5,326.309,268.806,330.003,264.25,330.003z"></path><path style="fill:#B9E57D;" d="M313.751,330.003h-16.5c-4.556,0-8.25-3.694-8.25-8.25v-8.25c0-4.556,3.694-8.25,8.25-8.25h16.5 c4.556,0,8.25,3.694,8.25,8.25v8.25C322.001,326.309,318.307,330.003,313.751,330.003z"></path><path style="fill:#FFC850;" d="M214.751,330.003h-16.5c-4.556,0-8.25-3.694-8.25-8.25v-8.25c0-4.556,3.694-8.25,8.25-8.25h16.5 c4.556,0,8.25,3.694,8.25,8.25v8.25C223.001,326.309,219.307,330.003,214.751,330.003z"></path><g><path style="fill:#DBD9DC;" d="M264.25,292.878h-16.5c-4.556,0-8.25-3.694-8.25-8.25v-8.25c0-4.556,3.694-8.25,8.25-8.25h16.5 c4.556,0,8.25,3.694,8.25,8.25v8.25C272.5,289.184,268.806,292.878,264.25,292.878z"></path><path style="fill:#DBD9DC;" d="M313.751,292.878h-16.5c-4.556,0-8.25-3.694-8.25-8.25v-8.25c0-4.556,3.694-8.25,8.25-8.25h16.5 c4.556,0,8.25,3.694,8.25,8.25v8.25C322.001,289.184,318.307,292.878,313.751,292.878z"></path><path style="fill:#DBD9DC;" d="M214.751,292.878h-16.5c-4.556,0-8.25-3.694-8.25-8.25v-8.25c0-4.556,3.694-8.25,8.25-8.25h16.5 c4.556,0,8.25,3.694,8.25,8.25v8.25C223.001,289.184,219.307,292.878,214.751,292.878z"></path></g><rect x="214.751" y="99" style="fill:#D4F582;" width="82.5" height="49.5"></rect><rect x="214.751" y="371.25" style="fill:#AEA8AF;" width="16.5" height="16.5"></rect></svg>